<svg width="1179" height="1179" viewBox="0 0 1179 1179" fill="none" xmlns="http://www.w3.org/2000/svg">
<rect width="1179" height="1179" fill="white"/>
<path d="M279.529 227.86C263.416 246.709 244.17 266.09 233.314 288.682C221.128 314.044 222.943 339.778 217.322 366.126C215.087 376.602 211.642 387.131 215.055 397.859C222.06 419.875 248.835 443.565 266.685 457.044C294.823 478.291 325.924 479.459 359.869 479.459C373.155 479.459 376.914 478.375 385.684 467.244C399.412 449.819 405.017 420.26 411.75 399.622C423.864 362.491 430.555 328.987 411.499 293.089C396.691 265.196 388.683 231.839 353.825 223.327C334.19 218.532 294.258 206.789 273.233 214.764C260.882 219.449 265.929 246.005 265.929 255.06" stroke="black" stroke-width="40" stroke-linecap="round"/>
<path d="M465.395 196.127C468.363 256.822 476.728 317.072 476.728 377.585C476.728 420.317 489.631 470.913 478.994 513.458" stroke="black" stroke-width="40" stroke-linecap="round"/>
<path d="M653.527 245.993C688.064 246.433 719.474 249.777 752.756 259.09C778.14 266.193 796.811 277.137 818.741 291.326C840.585 305.461 863.332 323.521 854.126 351.141C851.842 357.993 849.528 359.24 843.044 361.971C817.228 372.841 791.365 384.769 763.837 390.556C746.849 394.126 730.724 398.453 714.978 406.044C701.661 412.465 691.679 424.894 680.727 434.629C660.953 452.206 660.583 492.713 663.727 515.977C665.939 532.348 683.534 539.294 698.104 541.666C735.859 547.812 767.67 537.951 801.363 522.525C825.136 511.641 850.295 501.666 875.659 495.325" stroke="black" stroke-width="40" stroke-linecap="round"/>
<path d="M560.594 592.791C583.231 597.885 604.73 599.538 628.468 600.725C644.097 601.506 661.805 604.011 677.453 601.354C684.404 600.174 690.549 594.148 697.223 591.784C714.513 585.66 734.751 588.258 752.756 588.258C779.002 588.258 804.745 592.178 830.829 592.791C837.514 592.949 873.392 594.584 873.392 588.258" stroke="black" stroke-width="40" stroke-linecap="round"/>
<path d="M626.327 672.124C626.714 726.739 626.36 782.09 629.601 836.583C629.636 837.174 630.322 877.081 634.512 878.012C638.048 878.798 646.803 873.618 649.623 872.597C664.409 867.244 679.596 863.462 695.082 860.76C722.181 856.032 750.309 857.99 777.689 857.99C800.834 857.99 823.481 853.693 846.444 853.457C854.083 853.378 862.002 854.119 869.615 853.457C875.612 852.935 866.23 839.815 865.333 837.842C845.089 793.305 832.356 742.066 825.919 693.783C824.461 682.854 787.243 688.061 779.2 689.754C766.043 692.524 749.993 689.784 737.141 687.739C721.827 685.303 704.796 684.217 689.793 680.687C678.455 678.019 610.153 677.887 608.194 685.724" stroke="black" stroke-width="40" stroke-linecap="round"/>
</svg>
